<svg width="100%" height="100%" viewBox="0 0 24 24" fill="none" xmlns="http://www.w3.org/2000/svg">
<path d="M6 13.75C6.9665 13.75 7.75 12.9665 7.75 12C7.75 11.0335 6.9665 10.25 6 10.25C5.0335 10.25 4.25 11.0335 4.25 12C4.25 12.9665 5.0335 13.75 6 13.75Z" fill="black"/>
<path d="M12 13.75C12.9665 13.75 13.75 12.9665 13.75 12C13.75 11.0335 12.9665 10.25 12 10.25C11.0335 10.25 10.25 11.0335 10.25 12C10.25 12.9665 11.0335 13.75 12 13.75Z" fill="black"/>
<path d="M18 13.75C18.9665 13.75 19.75 12.9665 19.75 12C19.75 11.0335 18.9665 10.25 18 10.25C17.0335 10.25 16.25 11.0335 16.25 12C16.25 12.9665 17.0335 13.75 18 13.75Z" fill="black"/>
</svg>
