<svg width="100%" height="100%" viewBox="0 0 21 21" fill="none" xmlns="http://www.w3.org/2000/svg">
<path d="M19.8907 0.00600004L19.9967 0L20.1267 0.0079999L20.2167 0.0239999L20.3397 0.059L20.4467 0.105L20.5467 0.162L20.6367 0.229L20.7187 0.304L20.7707 0.363L20.8527 0.479L20.9047 0.575C20.9514 0.675 20.9814 0.780333 20.9947 0.891L20.9997 0.997C20.9997 1.07233 20.9917 1.14567 20.9757 1.217L20.9407 1.34L14.4087 19.417C14.2849 19.6866 14.0863 19.9149 13.8365 20.075C13.5868 20.2351 13.2963 20.3201 12.9997 20.32C12.7326 20.3206 12.4699 20.2521 12.237 20.1212C12.0041 19.9903 11.8091 19.8015 11.6707 19.573L11.6057 19.446L8.25369 12.744L1.58369 9.408C1.33689 9.29513 1.12405 9.11943 0.96646 8.89849C0.80887 8.67755 0.712051 8.4191 0.685688 8.149L0.679688 8C0.679688 7.44 0.980687 6.928 1.52069 6.63L1.66069 6.56L19.6777 0.0539999L19.7837 0.0239999L19.8907 0.00600004Z" fill="#B9946F"/>
</svg>
