<svg width="100%" height="100%" viewBox="0 0 46 48" fill="none" xmlns="http://www.w3.org/2000/svg">
<path d="M0 28V37.3333C0 38.3942 0.403868 39.4116 1.12276 40.1618C1.84165 40.9119 2.81667 41.3333 3.83333 41.3333H42.1667C43.1833 41.3333 44.1584 40.9119 44.8772 40.1618C45.5961 39.4116 46 38.3942 46 37.3333V28H0Z" fill="#808285"/>
<path d="M46 29.333V17.333C46 15.1237 41.7284 13.333 39.6111 13.333H14.0556C3.83333 13.333 0 16.457 0 18.6663V29.333H46Z" fill="#CCD6DD"/>
<path d="M0 29.333H46V33.333H0V29.333Z" fill="#939598"/>
<path d="M8.94457 33.333C7.07534 33.3345 5.27103 34.0485 3.87092 35.3408C2.47082 36.6331 1.5714 38.4146 1.3418 40.3503C2.03189 40.9802 2.91662 41.3292 3.83346 41.333H16.6112C16.6112 39.2113 15.8035 37.1764 14.3657 35.6762C12.9279 34.1759 10.9779 33.333 8.94457 33.333ZM44.6585 40.3503C44.4174 38.3312 43.4479 36.4838 41.9472 35.1844C40.4465 33.8851 38.5277 33.2315 36.5814 33.3567C34.635 33.482 32.8077 34.3767 31.4714 35.8586C30.1351 37.3405 29.3905 39.2982 29.389 41.333H42.1668C43.1239 41.333 43.9876 40.9543 44.6585 40.3503Z" fill="#BCBEC0"/>
<path d="M8.9451 46.6667C11.7679 46.6667 14.0562 44.2789 14.0562 41.3333C14.0562 38.3878 11.7679 36 8.9451 36C6.12231 36 3.83398 38.3878 3.83398 41.3333C3.83398 44.2789 6.12231 46.6667 8.9451 46.6667Z" fill="black"/>
<path d="M8.94423 44.0003C10.3556 44.0003 11.4998 42.8064 11.4998 41.3337C11.4998 39.8609 10.3556 38.667 8.94423 38.667C7.53283 38.667 6.38867 39.8609 6.38867 41.3337C6.38867 42.8064 7.53283 44.0003 8.94423 44.0003Z" fill="#99AAB5"/>
<path d="M37.0564 46.6667C39.8792 46.6667 42.1675 44.2789 42.1675 41.3333C42.1675 38.3878 39.8792 36 37.0564 36C34.2336 36 31.9453 38.3878 31.9453 41.3333C31.9453 44.2789 34.2336 46.6667 37.0564 46.6667Z" fill="black"/>
<path d="M37.0556 44.0003C38.4669 44.0003 39.6111 42.8064 39.6111 41.3337C39.6111 39.8609 38.4669 38.667 37.0556 38.667C35.6442 38.667 34.5 39.8609 34.5 41.3337C34.5 42.8064 35.6442 44.0003 37.0556 44.0003Z" fill="#99AAB5"/>
<path d="M0 33.3337H1.27778V36.0003H0V33.3337ZM44.7222 30.667H46V33.3337H44.7222V30.667Z" fill="#F4900C"/>
<path d="M1.27734 17.333H45.9996V30.6663H1.27734V17.333Z" fill="#58595B"/>
<path d="M2.55556 17.333H0.437C0.140556 17.7917 0 18.2463 0 18.6663V33.333H2.55556C3.23333 33.333 3.88335 33.0521 4.36261 32.552C4.84187 32.0519 5.11111 31.3736 5.11111 30.6663V19.9997C5.11111 19.2924 4.84187 18.6142 4.36261 18.1141C3.88335 17.614 3.23333 17.333 2.55556 17.333Z" fill="#292F33"/>
<path d="M39.6105 26.6667C39.6105 27.0203 39.4758 27.3594 39.2362 27.6095C38.9966 27.8595 38.6716 28 38.3327 28H8.94379C8.60491 28 8.2799 27.8595 8.04027 27.6095C7.80064 27.3594 7.66602 27.0203 7.66602 26.6667V21.3333C7.66602 20.9797 7.80064 20.6406 8.04027 20.3905C8.2799 20.1405 8.60491 20 8.94379 20H38.3327C38.6716 20 38.9966 20.1405 39.2362 20.3905C39.4758 20.6406 39.6105 20.9797 39.6105 21.3333V26.6667Z" fill="#55ACEE"/>
<path d="M44.7227 25.333H46.0004V27.9997H44.7227V25.333Z" fill="#FFAC33"/>
<path d="M1.27778 20H0V30.6667H1.27778C1.61667 30.6667 1.94167 30.5262 2.1813 30.2761C2.42093 30.0261 2.55556 29.687 2.55556 29.3333V21.3333C2.55556 20.9797 2.42093 20.6406 2.1813 20.3905C1.94167 20.1405 1.61667 20 1.27778 20Z" fill="#55ACEE"/>
</svg>
