<svg width="100%" height="100%" viewBox="0 0 48 48" fill="none" xmlns="http://www.w3.org/2000/svg">
<path d="M45.4327 24.0003L38.99 28.0003H37.334V22.667C37.334 22.5497 37.3073 22.4417 37.2993 22.3257C41.9153 21.1523 45.334 16.9803 45.334 12.0003C45.334 9.17119 44.2101 6.45791 42.2096 4.4574C40.2091 2.45688 37.4958 1.33301 34.6666 1.33301C31.8375 1.33301 29.1242 2.45688 27.1237 4.4574C25.1232 6.45791 23.9993 9.17119 23.9993 12.0003C23.9993 13.951 24.5486 15.763 25.4646 17.3337H19.894C19.9567 16.8963 20.0006 16.4537 20.0006 16.0003C20.0006 13.525 19.0173 11.151 17.267 9.40068C15.5166 7.65034 13.1427 6.66701 10.6673 6.66701C8.19196 6.66701 5.81799 7.65034 4.06765 9.40068C2.31731 11.151 1.33398 13.525 1.33398 16.0003C1.33589 17.7648 1.83793 19.4926 2.7819 20.9834C3.72587 22.4742 5.07308 23.6668 6.66732 24.423V38.667C6.66732 40.0815 7.22922 41.438 8.22941 42.4382C9.22961 43.4384 10.5862 44.0003 12.0007 44.0003H32.0006C33.4151 44.0003 34.7717 43.4384 35.7719 42.4382C36.7721 41.438 37.334 40.0815 37.334 38.667V34.667H38.99L45.4327 38.667H46.6673V24.0003H45.4327ZM38.3033 5.30301C39.4959 5.95086 40.4936 6.90573 41.1931 8.06873C41.8926 9.23172 42.2686 10.5606 42.282 11.9177L37.574 11.1337C37.4291 10.6388 37.1617 10.1885 36.7966 9.82434L38.3033 5.30301ZM37.1033 13.759L41.8393 14.5483C41.4004 15.7768 40.6531 16.8719 39.6692 17.7285C38.6853 18.5852 37.4978 19.1746 36.2207 19.4403C35.7266 18.7954 35.0918 18.2719 34.3647 17.9097L35.198 14.9897C35.9611 14.8236 36.6381 14.3863 37.1033 13.759ZM34.6673 4.38034C35.0433 4.38034 35.41 4.41634 35.7713 4.46967L34.2633 8.99234C33.7246 9.06434 33.234 9.27234 32.822 9.58701L28.5606 7.45634C29.2675 6.50221 30.188 5.72698 31.2485 5.1928C32.309 4.65862 33.4799 4.38037 34.6673 4.38034ZM27.0473 12.0003C27.0473 11.2497 27.1606 10.5257 27.362 9.84034L31.6206 11.9697L31.618 12.0003C31.618 12.8763 32.0353 13.6603 32.646 14.2163L31.7553 17.3337H29.2606C27.8463 15.9188 27.0503 14.0009 27.0473 12.0003ZM14.93 11.487C15.548 12.0652 16.0409 12.7641 16.378 13.5404C16.7151 14.3167 16.8894 15.154 16.89 16.0003C16.89 16.459 16.8326 16.903 16.7393 17.3337H13.4673C13.6607 16.9283 13.778 16.479 13.778 16.0003C13.78 15.3868 13.598 14.7867 13.2553 14.2777L14.93 11.487ZM10.6673 9.77767C11.3593 9.77767 12.014 9.91767 12.6353 10.1257L10.9607 12.9177C10.8633 12.9083 10.7673 12.8883 10.6673 12.8883C10.0537 12.8863 9.45365 13.0684 8.94465 13.411L6.15398 11.7377C6.73221 11.1196 7.43109 10.6268 8.20741 10.2897C8.98373 9.95254 9.82096 9.77828 10.6673 9.77767ZM4.44465 16.0003C4.44465 15.3083 4.58465 14.6537 4.79265 14.031L7.58598 15.707C7.57665 15.8043 7.55665 15.899 7.55665 16.0003C7.55665 17.0003 8.03665 17.8803 8.76998 18.4497C7.9314 19.0944 7.30346 19.9739 6.96598 20.9763C5.44465 19.8417 4.44465 18.0443 4.44465 16.0003Z" fill="#31373D"/>
<path d="M32.0007 28.0003C33.4734 28.0003 34.6673 26.8064 34.6673 25.3337C34.6673 23.8609 33.4734 22.667 32.0007 22.667C30.5279 22.667 29.334 23.8609 29.334 25.3337C29.334 26.8064 30.5279 28.0003 32.0007 28.0003Z" fill="#8899A6"/>
<path d="M12.0007 28.0003C13.4734 28.0003 14.6673 26.8064 14.6673 25.3337C14.6673 23.8609 13.4734 22.667 12.0007 22.667C10.5279 22.667 9.33398 23.8609 9.33398 25.3337C9.33398 26.8064 10.5279 28.0003 12.0007 28.0003Z" fill="#8899A6"/>
<path d="M32 35.9997C32 35.2924 31.719 34.6142 31.219 34.1141C30.7189 33.614 30.0406 33.333 29.3333 33.333H14.6667C13.9594 33.333 13.2811 33.614 12.781 34.1141C12.281 34.6142 12 35.2924 12 35.9997V43.9997C12 44.7069 12.281 45.3852 12.781 45.8853C13.2811 46.3854 13.9594 46.6663 14.6667 46.6663H29.3333C30.0406 46.6663 30.7189 46.3854 31.219 45.8853C31.719 45.3852 32 44.7069 32 43.9997V35.9997Z" fill="#8899A6"/>
</svg>
