<svg width="100%" height="100%" viewBox="0 0 48 48" fill="none" xmlns="http://www.w3.org/2000/svg">
<g clip-path="url(#clip0_323_900)">
<path d="M32.4766 21.7826C32.4766 21.7826 35.4739 16.504 38.8832 16.224C42.2926 15.944 44.1219 17.4693 44.4086 20.8C44.7912 25.2453 43.2379 25.8693 44.3646 30.84C44.3646 30.84 39.6366 27.6213 41.1366 22.7466C42.6992 17.672 34.7232 18.62 36.0232 23.168L32.4766 21.7826Z" fill="#DD2E44"/>
<path d="M19.0794 27.167C18.7258 27.167 18.3867 27.3075 18.1366 27.5575C17.8866 27.8076 17.7461 28.1467 17.7461 28.5003V46.5843C17.7461 46.9379 17.8866 47.2771 18.1366 47.5271C18.3867 47.7772 18.7258 47.9177 19.0794 47.9177C19.433 47.9177 19.7722 47.7772 20.0222 47.5271C20.2723 47.2771 20.4128 46.9379 20.4128 46.5843V28.5003C20.4128 28.1467 20.2723 27.8076 20.0222 27.5575C19.7722 27.3075 19.433 27.167 19.0794 27.167Z" fill="#FFCC4D"/>
<path d="M20.4128 34.3604L17.7461 35.7564V38.7657L20.4128 37.3697V34.3604ZM17.7461 45.099L20.4128 43.703V40.6937L17.7461 42.0897V45.099Z" fill="#F4900C"/>
<path d="M5.21554 29.2471C3.64087 29.0911 2.6582 31.4084 2.6582 31.4084C2.8102 32.4937 3.2542 34.4151 3.4542 35.1124C3.8902 36.6337 6.2822 39.2391 7.80354 38.8031C9.32487 38.3671 8.88887 36.8457 8.45287 35.3257C8.01687 33.8057 5.21554 36.1551 6.06087 32.7191C6.25954 31.9111 7.2142 31.7111 8.0382 31.7924C11.1875 32.1044 11.8795 31.4951 13.0889 30.0257C14.5075 28.2977 6.7902 29.4031 5.21554 29.2471ZM38.7382 38.1804C38.7382 41.3448 40.3204 42.9271 43.4849 42.9271C48.2315 42.9271 45.0675 42.9271 43.4849 39.7631C41.9022 36.5991 38.7382 35.0164 38.7382 35.0164V38.1804Z" fill="#8899A6"/>
<path d="M46.6489 41.3439C45.0663 39.7613 43.4849 41.3439 43.4849 38.1799C43.4849 35.0159 41.9023 33.4333 40.3209 33.4333C38.7396 33.4333 38.7383 27.1053 38.7383 25.5226C38.7383 23.9399 35.5743 17.6119 30.8276 17.6119C26.0809 17.6119 22.9169 19.1946 19.7529 19.1946C16.5889 19.1946 15.0063 19.1946 13.4249 12.8666C12.2116 8.01327 7.09694 6.53861 2.35028 8.11994C2.35028 8.11994 -1.09239 6.79327 0.490276 8.37594C2.07294 9.95861 0.250276 9.70261 0.250276 12.8666C0.250276 13.2333 0.338276 13.5533 0.482276 13.8399C0.47161 15.3186 0.456943 18.0279 0.49161 18.6666C0.53961 19.5559 0.883609 19.8439 1.99961 20.2773C3.49961 20.8613 4.37561 19.8519 4.47161 19.3333C4.66628 18.2773 4.49961 17.1253 4.49961 17.1253C4.49961 17.1253 6.05561 16.4999 7.02761 15.6119C7.15828 15.7199 7.86094 17.1399 7.09694 19.1959C6.54628 20.6786 5.51428 22.3599 8.67961 27.1066C8.67961 27.1066 3.93294 27.1066 2.35161 28.6893C0.770276 30.2719 0.38361 33.4359 0.41561 35.0173C0.45961 37.2146 2.35161 39.7639 3.93428 39.7639C5.51694 39.7639 5.51694 38.1813 5.51694 36.5999C5.51694 35.0186 2.35294 36.5999 3.93428 33.4359C5.51561 30.2719 5.51694 31.8533 7.09828 31.8533C8.67961 31.8533 11.8449 30.2706 13.4263 30.2706C15.0076 30.2706 18.1729 31.8533 21.3369 31.8533C24.5009 31.8533 27.6649 28.6893 30.8289 31.8533C33.9929 35.0173 38.7396 35.0173 40.3209 36.5999C41.9036 38.1826 41.9036 39.7639 41.9036 41.3466C41.9036 42.9293 45.0676 44.5106 46.6503 44.5106C48.2329 44.5106 48.2316 42.9266 46.6489 41.3439Z" fill="#CCD6DD"/>
<path d="M14.2825 15.6816C15.6238 19.187 17.1545 19.195 19.7532 19.195C22.4198 19.195 25.0972 18.0816 28.7105 17.727C28.9007 18.207 29.0789 18.6963 29.2452 19.195C30.8278 23.9416 29.2452 27.1056 21.3345 27.1056C19.2365 27.1056 17.2243 26.2722 15.7408 24.7887C14.2573 23.3051 13.4238 21.293 13.4238 19.195C13.4333 17.9731 13.7273 16.7702 14.2825 15.6816Z" fill="#3B94D9"/>
<path d="M7.50594 26.2734C7.80594 26.3081 8.11794 26.2561 8.40461 26.1081C8.63128 25.9921 13.9873 23.1947 16.2966 18.2227C16.6646 17.4307 14.7353 15.9307 14.3686 16.0507C13.9673 16.1827 13.6219 16.4747 13.4299 16.8881C11.5833 20.8614 7.00194 23.2694 6.95794 23.2934C6.65581 23.4489 6.41175 23.6976 6.26187 24.0025C6.11199 24.3075 6.06425 24.6526 6.12571 24.9868C6.18717 25.321 6.35456 25.6266 6.60313 25.8583C6.8517 26.09 7.16825 26.2355 7.50594 26.2734Z" fill="#F4900C"/>
<path d="M19.0806 21.8777C20.1521 21.8777 21.0206 21.1834 21.0206 20.327C21.0206 19.4706 20.1521 18.7764 19.0806 18.7764C18.0092 18.7764 17.1406 19.4706 17.1406 20.327C17.1406 21.1834 18.0092 21.8777 19.0806 21.8777Z" fill="#1C6399"/>
<path d="M19.0794 0.333008C18.7258 0.333008 18.3867 0.473484 18.1366 0.723532C17.8866 0.973581 17.7461 1.31272 17.7461 1.66634V19.7637L17.7528 19.7623L17.7488 19.7637C17.7507 20.1169 17.8929 20.455 18.1441 20.7034C18.3953 20.9518 18.7348 21.0903 19.0881 21.0883C19.4414 21.0864 19.7794 20.9442 20.0278 20.693C20.2762 20.4418 20.4147 20.1023 20.4128 19.749V1.66634C20.4128 1.31272 20.2723 0.973581 20.0222 0.723532C19.7722 0.473484 19.433 0.333008 19.0794 0.333008Z" fill="#FFCC4D"/>
<path d="M20.4128 2.69336L17.7461 4.08936V7.09869L20.4128 5.70269V2.69336ZM20.4128 9.02669L17.7461 10.4227V13.432L20.4128 12.036V9.02669ZM17.7461 19.7507L17.7594 19.7587L20.4128 18.3707V15.36L17.7461 16.756V19.7507Z" fill="#F4900C"/>
<path d="M4.36552 17.6734C4.24219 17.6734 4.12126 17.6393 4.01618 17.5747C3.06356 17.0054 1.98693 16.6759 0.878849 16.6147C0.702038 16.614 0.53275 16.5431 0.408226 16.4175C0.283701 16.292 0.214142 16.1222 0.214849 15.9454C0.215556 15.7685 0.286473 15.5993 0.411997 15.4747C0.537521 15.3502 0.707371 15.2806 0.884182 15.2814C0.960182 15.296 2.38952 15.2854 4.01752 16.06C4.40018 14.9427 5.03752 12.5054 4.63885 9.49735C4.61551 9.32196 4.6628 9.14447 4.77032 9.00394C4.87784 8.86342 5.03679 8.77136 5.21218 8.74802C5.38758 8.72468 5.56506 8.77197 5.70559 8.87949C5.84612 8.98701 5.93818 9.14596 5.96152 9.32135C6.56418 13.8667 5.03485 17.1547 4.96952 17.292C4.91538 17.4063 4.82985 17.5029 4.7229 17.5704C4.61595 17.6379 4.492 17.6736 4.36552 17.6734Z" fill="#1C6399"/>
<path d="M2.93331 12.1292C3.15916 11.7886 3.1313 11.3726 2.87108 11.2C2.61086 11.0275 2.21682 11.1637 1.99097 11.5044C1.76512 11.845 1.79298 12.261 2.0532 12.4335C2.31342 12.6061 2.70745 12.4698 2.93331 12.1292Z" fill="#292F33"/>
<path d="M16.5902 17.613C13.4262 14.449 15.2489 10.605 12.0849 7.441C9.58356 4.93967 5.51556 4.957 2.35156 8.121C2.35156 8.121 3.84623 9.569 7.7929 9.95834C9.69956 10.1463 11.3249 12.2157 12.2422 13.6677C15.1889 19.4157 18.9836 20.0063 16.5902 17.613Z" fill="#DD2E44"/>
</g>
<defs>
<clipPath id="clip0_323_900">
<rect width="48" height="48" fill="white"/>
</clipPath>
</defs>
</svg>
