<svg width="100%" height="100%" viewBox="0 0 48 48" fill="none" xmlns="http://www.w3.org/2000/svg">
<g clip-path="url(#clip0_323_991)">
<path d="M15.9278 36C-1.38154 10.5013 10.0318 3.66935 12.1518 2.66668C12.3505 2.57335 12.4745 2.52668 12.4785 2.52401C12.7481 2.39028 12.9645 2.16927 13.0925 1.89693C13.2206 1.6246 13.2528 1.31695 13.1838 1.02401C13.1114 0.730774 12.9426 0.470377 12.7044 0.28466C12.4662 0.0989436 12.1725 -0.00130835 11.8705 1.28942e-05H6.46246C1.40512 1.28942e-05 -5.70954 14.6667 7.81179 37.3333C8.01312 37.6707 14.5758 37.3333 14.5758 37.3333C15.3211 37.3333 16.3411 36.612 15.9278 36ZM41.6385 1.28942e-05H36.3051C36.0051 2.98916e-05 35.7139 0.101212 35.4785 0.287203C35.2432 0.473194 35.0774 0.733126 35.008 1.02498C34.9386 1.31684 34.9697 1.62356 35.0962 1.89558C35.2227 2.16759 35.4372 2.389 35.7051 2.52401C35.7105 2.52668 35.8318 2.57335 36.0278 2.66668C38.1185 3.66935 49.3745 10.5013 32.3051 36C31.8958 36.612 32.9025 37.3333 33.6385 37.3333C33.6385 37.3333 40.1105 37.6707 40.3078 37.3333C53.6411 14.6667 46.6265 1.28942e-05 41.6385 1.28942e-05Z" fill="#C1694F"/>
<path d="M9.18508 38.4483L9.19042 38.4617C9.10509 38.071 16.3411 36.6123 15.9278 36.0003C-1.38158 10.5017 10.0318 3.66966 12.1518 2.66699H6.45975C1.40375 2.66699 -4.35758 17.3337 9.18508 38.4483ZM41.6411 2.66699H36.0278C38.1184 3.66966 49.3744 10.5017 32.3051 36.0003C31.8958 36.6123 38.9504 38.4523 38.9531 38.4483C52.3078 17.3337 46.6278 2.66699 41.6411 2.66699Z" fill="#662113"/>
<path d="M13.2215 10.6667C13.0451 10.6681 12.8701 10.6347 12.7066 10.5684C12.543 10.5022 12.3942 10.4043 12.2685 10.2805C12.1428 10.1567 12.0427 10.0093 11.9741 9.84675C11.9054 9.68423 11.8694 9.50977 11.8682 9.33333C11.8682 4.912 9.16416 2.66667 6.46016 2.66667C5.8335 2.66667 6.3535 1.624 6.49883 1.024C6.6455 0.424 7.18683 0 7.81216 0H14.5735C19.6282 0 21.1575 8.18133 21.3162 9.11333C21.3476 9.30464 21.3369 9.5005 21.2848 9.68726C21.2328 9.87401 21.1406 10.0472 21.0148 10.1947C20.8862 10.3425 20.7275 10.4611 20.5493 10.5425C20.371 10.6239 20.1774 10.6663 19.9815 10.6667H13.2215ZM34.9748 10.6667C35.3285 10.6667 35.6676 10.5262 35.9176 10.2761C36.1677 10.0261 36.3082 9.68696 36.3082 9.33333C36.3082 4.912 38.9748 2.66667 41.6415 2.66667C42.2588 2.66667 41.7455 1.624 41.6028 1.024C41.5334 0.73273 41.3679 0.473324 41.133 0.287566C40.8981 0.101808 40.6076 0.00051388 40.3082 0L33.6415 0C28.6575 0 27.1495 8.18133 26.9935 9.11333C26.9615 9.30436 26.9716 9.50005 27.0229 9.6868C27.0743 9.87355 27.1657 10.0469 27.2908 10.1947C27.4159 10.3425 27.5718 10.4613 27.7474 10.5429C27.9231 10.6244 28.1145 10.6666 28.3082 10.6667H34.9748Z" fill="#C1694F"/>
<path d="M8 42.6667C8 42.6667 8 48 13.3333 48H34.6667C34.6667 48 40 48 40 42.6667V13.3333C40 13.3333 40 8 34.6667 8H13.3333C8 8 8 13.3333 8 13.3333V42.6667Z" fill="#BE1931"/>
<path d="M32 37.333H16C13.0653 37.333 12 34.941 12 33.333V14.6663C12 14.3127 12.1405 13.9736 12.3905 13.7235C12.6406 13.4735 12.9797 13.333 13.3333 13.333C13.687 13.333 14.0261 13.4735 14.2761 13.7235C14.5262 13.9736 14.6667 14.3127 14.6667 14.6663V33.333C14.6827 33.933 14.9267 34.6663 16 34.6663H32C32.6 34.6503 33.3333 34.4077 33.3333 33.333V14.6663C33.3333 14.3127 33.4738 13.9736 33.7239 13.7235C33.9739 13.4735 34.313 13.333 34.6667 13.333C35.0203 13.333 35.3594 13.4735 35.6095 13.7235C35.8595 13.9736 36 14.3127 36 14.6663V33.333C36 36.2677 33.608 37.333 32 37.333Z" fill="#A0041E"/>
<path d="M21.334 33.3333C21.334 33.3333 21.334 32 22.6673 32H25.334C25.334 32 26.6673 32 26.6673 33.3333V40C26.6673 40 26.6673 41.3333 25.334 41.3333H22.6673C22.6673 41.3333 21.334 41.3333 21.334 40V33.3333Z" fill="white"/>
</g>
<defs>
<clipPath id="clip0_323_991">
<rect width="48" height="48" fill="white"/>
</clipPath>
</defs>
</svg>
