<svg width="100%" height="100%" viewBox="0 0 48 48" fill="none" xmlns="http://www.w3.org/2000/svg">
<path d="M10.6673 21.3333C10.3137 21.3333 9.97456 21.1929 9.72451 20.9428C9.47446 20.6928 9.33398 20.3536 9.33398 20V5.33333C9.33398 4.97971 9.47446 4.64057 9.72451 4.39052C9.97456 4.14048 10.3137 4 10.6673 4C11.0209 4 11.3601 4.14048 11.6101 4.39052C11.8602 4.64057 12.0007 4.97971 12.0007 5.33333V20C12.0007 20.3536 11.8602 20.6928 11.6101 20.9428C11.3601 21.1929 11.0209 21.3333 10.6673 21.3333Z" fill="#CCD6DD"/>
<path d="M2.66602 44C2.66602 41.0187 7.99935 36 11.9993 36V42.6667C10.666 42.6667 6.66602 44 5.33268 45.3333C3.99935 46.6667 2.66602 45.3333 2.66602 44ZM21.3327 44C21.3327 41.0187 15.9993 36 11.9993 36V42.6667C13.3327 42.6667 17.3327 44 18.666 45.3333C19.9993 46.6667 21.3327 45.3333 21.3327 44Z" fill="#3B88C3"/>
<path d="M20.0007 18.667C22.6673 18.667 25.334 20.0003 25.334 21.3337C25.334 25.3337 21.1113 36.723 14.4447 38.0563C7.77798 39.3897 20.0007 18.667 20.0007 18.667ZM4.00065 26.667C2.66732 28.0003 1.33398 30.667 1.33398 33.3337C1.33398 36.0003 5.00065 30.611 6.66732 32.0003C8.95798 33.9097 4.00065 26.667 4.00065 26.667Z" fill="#3B88C3"/>
<path d="M7.44335 16.3335C9.44335 17.0002 10.8874 16.5002 12.3327 15.3335C13.778 14.1668 13.9994 18.7228 11.9994 20.2228C9.99935 21.7228 6.49935 25.2228 6.55535 22.1122C6.61135 19.0015 7.44335 16.3335 7.44335 16.3335Z" fill="black"/>
<path d="M12.03 14.668C11.2647 15.508 9.55535 17.7773 8.72202 20.5546C7.55535 21.2213 7.61135 18.944 7.77802 18.2213C8.07802 16.9213 8.45268 16.9186 8.23935 16.1933C7.95935 15.4586 7.18735 15.708 6.74735 15.9813C4.46335 17.2933 2.66602 19.7333 2.66602 24C2.66602 31.3626 9.33268 41.3333 11.9993 41.3333C14.666 41.3333 21.3327 31.3626 21.3327 24C21.3327 16.6546 16.0273 14.6773 12.03 14.668Z" fill="#55ACEE"/>
<path d="M15.334 22.667C16.4386 22.667 17.334 21.7716 17.334 20.667C17.334 19.5624 16.4386 18.667 15.334 18.667C14.2294 18.667 13.334 19.5624 13.334 20.667C13.334 21.7716 14.2294 22.667 15.334 22.667Z" fill="black"/>
<path d="M11.9388 30.4365C9.93343 30.4365 8.16677 29.7191 6.60543 28.9045C6.29177 28.7407 6.05599 28.4591 5.94997 28.1215C5.84395 27.784 5.87637 27.4181 6.0401 27.1045C6.20383 26.7908 6.48545 26.555 6.82301 26.449C7.16058 26.343 7.52644 26.3754 7.8401 26.5391C10.3614 27.8565 12.6268 28.3858 15.4868 26.6858C15.7902 26.5212 16.1456 26.4805 16.4784 26.5724C16.8111 26.6642 17.0954 26.8815 17.2714 27.1784C17.4474 27.4754 17.5015 27.829 17.4223 28.165C17.3431 28.501 17.1369 28.7933 16.8468 28.9805C15.0681 30.0365 13.4361 30.4365 11.9388 30.4365Z" fill="#226699"/>
<path d="M39.7787 47C39.12 46.6707 38.3894 45.7227 38.8067 44.7374C40.5854 40.5427 44.5107 22.204 40.9454 11.7227C40.2774 9.76002 38.1214 6.84402 35.5054 5.23869C27.056 0.0560195 14.4307 2.89469 12.6667 3.77735C12.0067 4.10802 9.94136 4.76935 9.61069 4.11069C9.28002 3.45202 10.396 2.77335 11.0547 2.44402C13.396 1.27469 26.0734 -2.72665 37.2774 3.49869C39.2774 4.60935 42.064 6.66669 43.548 10.5694C47.8907 21.992 44.944 41.7907 42.4987 46.332C41.7227 47.7774 39.9707 47.0947 39.7787 47Z" fill="#662113"/>
<path d="M37.3333 38.6667C40.2789 38.6667 42.6667 36.2789 42.6667 33.3333C42.6667 30.3878 40.2789 28 37.3333 28C34.3878 28 32 30.3878 32 33.3333C32 36.2789 34.3878 38.6667 37.3333 38.6667Z" fill="#99AAB5"/>
<path d="M37.3327 36.0003C38.8054 36.0003 39.9993 34.8064 39.9993 33.3337C39.9993 31.8609 38.8054 30.667 37.3327 30.667C35.8599 30.667 34.666 31.8609 34.666 33.3337C34.666 34.8064 35.8599 36.0003 37.3327 36.0003Z" fill="#66757F"/>
</svg>
