<svg width="100%" height="100%" viewBox="0 0 48 48" fill="none" xmlns="http://www.w3.org/2000/svg">
<g clip-path="url(#clip0_323_976)">
<path d="M28 20.0003C28 21.4148 27.4381 22.7714 26.4379 23.7716C25.4377 24.7718 24.0812 25.3337 22.6667 25.3337H5.33333C3.91885 25.3337 2.56229 24.7718 1.5621 23.7716C0.561903 22.7714 0 21.4148 0 20.0003V16.0003C0 14.5858 0.561903 13.2293 1.5621 12.2291C2.56229 11.2289 3.91885 10.667 5.33333 10.667H22.6667C24.0812 10.667 25.4377 11.2289 26.4379 12.2291C27.4381 13.2293 28 14.5858 28 16.0003V20.0003Z" fill="#C1694F"/>
<path d="M48.0006 7.99967C48.0006 9.41416 47.4387 10.7707 46.4386 11.7709C45.4384 12.7711 44.0818 13.333 42.6673 13.333H26.6673C25.2528 13.333 23.8963 12.7711 22.8961 11.7709C21.8959 10.7707 21.334 9.41416 21.334 7.99967V6.66634C21.334 5.25185 21.8959 3.8953 22.8961 2.89511C23.8963 1.89491 25.2528 1.33301 26.6673 1.33301H42.6673C44.0818 1.33301 45.4384 1.89491 46.4386 2.89511C47.4387 3.8953 48.0006 5.25185 48.0006 6.66634V7.99967Z" fill="#C1694F"/>
<path d="M0 16V45.3333C0 46.0406 0.280952 46.7189 0.781049 47.219C1.28115 47.7191 1.95942 48 2.66667 48H44V16H0Z" fill="#FFCC4D"/>
<path d="M2.66602 42.667H18.666V48.0003H2.66602V42.667ZM2.66602 34.667H23.9993V40.0003H2.66602V34.667Z" fill="#55ACEE"/>
<path d="M21.334 6.66699V48.0003H45.334C46.0412 48.0003 46.7195 47.7194 47.2196 47.2193C47.7197 46.7192 48.0006 46.0409 48.0006 45.3337V6.66699H21.334Z" fill="#FFE8B6"/>
<path d="M24 26.667H45.3333V32.0003H24V26.667ZM24 18.667H45.3333V24.0003H24V18.667ZM24 10.667H45.3333V16.0003H24V10.667ZM24 34.667H45.3333V40.0003H24V34.667Z" fill="#55ACEE"/>
<path d="M29.334 9.33301H32.0007V41.333H29.334V9.33301ZM37.334 9.33301H40.0007V41.333H37.334V9.33301Z" fill="#FFE8B6"/>
<path d="M29.334 42.667H40.0007V48.0003H29.334V42.667ZM13.334 18.667V24.0003H8.00065V18.667H5.33398V32.0003H8.00065V26.667H13.334V32.0003H16.0007V18.667H13.334Z" fill="#3B88C3"/>
<path d="M9.33398 33.333H12.0007V41.333H9.33398V33.333ZM18.6673 33.333H21.334V41.333H18.6673V33.333Z" fill="#FFCC4D"/>
</g>
<defs>
<clipPath id="clip0_323_976">
<rect width="48" height="48" fill="white"/>
</clipPath>
</defs>
</svg>
