<svg width="100%" height="100%" viewBox="0 0 48 48" fill="none" xmlns="http://www.w3.org/2000/svg">
<g clip-path="url(#clip0_323_986)">
<path d="M14.6667 0C11.8377 0 9.12458 1.12381 7.12419 3.12419C5.12381 5.12458 4 7.83769 4 10.6667V21.3333H6.66667V10.6667C6.66667 8.54494 7.50952 6.5101 9.00981 5.00981C10.5101 3.50952 12.5449 2.66667 14.6667 2.66667C16.7884 2.66667 18.8232 3.50952 20.3235 5.00981C21.8238 6.5101 22.6667 8.54494 22.6667 10.6667V21.3333H25.3333V10.6667C25.3333 7.83769 24.2095 5.12458 22.2091 3.12419C20.2088 1.12381 17.4956 0 14.6667 0Z" fill="#F4900C"/>
<path d="M1.33398 10.667L4.00065 13.3337L6.66732 10.667L9.33398 13.3337L12.0007 10.667L14.6673 13.3337L17.334 10.667L20.0006 13.3337L22.6673 10.667L25.334 13.3337L28.0006 10.667V41.3337H1.33398V10.667Z" fill="#DD2E44"/>
<path d="M33.3327 6.66699C30.5037 6.66699 27.7906 7.7908 25.7902 9.79119C23.7898 11.7916 22.666 14.5047 22.666 17.3337V28.0003H25.3327V17.3337C25.3327 15.2119 26.1755 13.1771 27.6758 11.6768C29.1761 10.1765 31.211 9.33366 33.3327 9.33366C35.4544 9.33366 37.4892 10.1765 38.9895 11.6768C40.4898 13.1771 41.3327 15.2119 41.3327 17.3337V28.0003H43.9993V17.3337C43.9993 14.5047 42.8755 11.7916 40.8752 9.79119C38.8748 7.7908 36.1617 6.66699 33.3327 6.66699Z" fill="#FFCC4D"/>
<path d="M20 17.333L22.6667 19.9997L25.3333 17.333L28 19.9997L30.6667 17.333L33.3333 19.9997L36 17.333L38.6667 19.9997L41.3333 17.333L44 19.9997L46.6667 17.333V47.9997H20V17.333Z" fill="#744EAA"/>
</g>
<defs>
<clipPath id="clip0_323_986">
<rect width="48" height="48" fill="white"/>
</clipPath>
</defs>
</svg>
