<svg width="100%" height="100%" viewBox="0 0 48 48" fill="none" xmlns="http://www.w3.org/2000/svg">
<g clip-path="url(#clip0_323_956)">
<path d="M48 24C48 37.2547 37.2547 48 24 48C10.7453 48 0 37.2547 0 24C0 10.7453 10.7453 0 24 0C37.2547 0 48 10.7453 48 24Z" fill="#E1E8ED"/>
<path d="M40 24C40 32.8373 32.8373 40 24 40C15.1627 40 8 32.8373 8 24C8 15.1627 15.1627 8 24 8C32.8373 8 40 15.1627 40 24Z" fill="#CCD6DD"/>
<path d="M38.6673 23.9997C38.6673 32.0997 32.1007 38.6663 24.0007 38.6663C15.9007 38.6663 9.33398 32.0997 9.33398 23.9997C9.33398 15.8997 15.9007 9.33301 24.0007 9.33301C32.1007 9.33301 38.6673 15.8983 38.6673 23.9997Z" fill="#E1E8ED"/>
<path d="M1.33333 2.66667C2.06971 2.66667 2.66667 2.06971 2.66667 1.33333C2.66667 0.596954 2.06971 0 1.33333 0C0.596954 0 0 0.596954 0 1.33333C0 2.06971 0.596954 2.66667 1.33333 2.66667Z" fill="#99AAB5"/>
<path d="M0 1.33301H2.66667V10.6663H0V1.33301Z" fill="#99AAB5"/>
<path d="M6.66732 2.66667C7.4037 2.66667 8.00065 2.06971 8.00065 1.33333C8.00065 0.596954 7.4037 0 6.66732 0C5.93094 0 5.33398 0.596954 5.33398 1.33333C5.33398 2.06971 5.93094 2.66667 6.66732 2.66667Z" fill="#99AAB5"/>
<path d="M5.33398 1.33301H8.00065V10.6663H5.33398V1.33301Z" fill="#99AAB5"/>
<path d="M11.9993 2.66667C12.7357 2.66667 13.3327 2.06971 13.3327 1.33333C13.3327 0.596954 12.7357 0 11.9993 0C11.263 0 10.666 0.596954 10.666 1.33333C10.666 2.06971 11.263 2.66667 11.9993 2.66667Z" fill="#99AAB5"/>
<path d="M10.6667 1.33301H13.3333V10.6663H10.6667V1.33301ZM4 18.6663H9.33333V45.333H4V18.6663Z" fill="#99AAB5"/>
<path d="M6.66667 48.0003C8.13943 48.0003 9.33333 46.8064 9.33333 45.3337C9.33333 43.8609 8.13943 42.667 6.66667 42.667C5.19391 42.667 4 43.8609 4 45.3337C4 46.8064 5.19391 48.0003 6.66667 48.0003Z" fill="#99AAB5"/>
<path d="M10.6667 10.667C10.6667 11.0206 10.5262 11.3598 10.2761 11.6098C10.0261 11.8598 9.68695 12.0003 9.33333 12.0003C8.97971 12.0003 8.64057 11.8598 8.39052 11.6098C8.14048 11.3598 8 11.0206 8 10.667H5.33333C5.33333 11.0206 5.19286 11.3598 4.94281 11.6098C4.69276 11.8598 4.35362 12.0003 4 12.0003C3.64638 12.0003 3.30724 11.8598 3.05719 11.6098C2.80714 11.3598 2.66667 11.0206 2.66667 10.667H0C0 15.8217 1.33333 20.0003 6.66667 20.0003C12 20.0003 13.3333 15.8217 13.3333 10.667H10.6667Z" fill="#99AAB5"/>
<path d="M1.33333 11.9997C2.06971 11.9997 2.66667 11.4027 2.66667 10.6663C2.66667 9.92996 2.06971 9.33301 1.33333 9.33301C0.596954 9.33301 0 9.92996 0 10.6663C0 11.4027 0.596954 11.9997 1.33333 11.9997Z" fill="#99AAB5"/>
<path d="M6.66732 11.9997C7.4037 11.9997 8.00065 11.4027 8.00065 10.6663C8.00065 9.92996 7.4037 9.33301 6.66732 9.33301C5.93094 9.33301 5.33398 9.92996 5.33398 10.6663C5.33398 11.4027 5.93094 11.9997 6.66732 11.9997Z" fill="#99AAB5"/>
<path d="M11.9993 11.9997C12.7357 11.9997 13.3327 11.4027 13.3327 10.6663C13.3327 9.92996 12.7357 9.33301 11.9993 9.33301C11.263 9.33301 10.666 9.92996 10.666 10.6663C10.666 11.4027 11.263 11.9997 11.9993 11.9997Z" fill="#99AAB5"/>
<path d="M40 18.667H45.3333V45.3337H40V18.667Z" fill="#99AAB5"/>
<path d="M42.6667 48.0003C44.1394 48.0003 45.3333 46.8064 45.3333 45.3337C45.3333 43.8609 44.1394 42.667 42.6667 42.667C41.1939 42.667 40 43.8609 40 45.3337C40 46.8064 41.1939 48.0003 42.6667 48.0003Z" fill="#99AAB5"/>
<path d="M42.6667 0C44 0 45.3333 1.33333 45.3333 4V25.3333C45.3333 25.3333 36 28 36 14.6667C36 6.66667 40 0 42.6667 0Z" fill="#99AAB5"/>
</g>
<defs>
<clipPath id="clip0_323_956">
<rect width="48" height="48" fill="white"/>
</clipPath>
</defs>
</svg>
