<svg width="100%" height="100%" viewBox="0 0 27 43" fill="none" xmlns="http://www.w3.org/2000/svg">
<path d="M13.125 20.1875C11.8818 20.1875 10.6895 19.6278 9.81044 18.6315C8.93136 17.6352 8.4375 16.284 8.4375 14.875C8.4375 13.466 8.93136 12.1148 9.81044 11.1185C10.6895 10.1222 11.8818 9.5625 13.125 9.5625C14.3682 9.5625 15.5605 10.1222 16.4396 11.1185C17.3186 12.1148 17.8125 13.466 17.8125 14.875C17.8125 15.5726 17.6913 16.2635 17.4557 16.908C17.2201 17.5525 16.8748 18.1382 16.4396 18.6315C16.0043 19.1248 15.4875 19.5161 14.9188 19.7831C14.3501 20.0501 13.7406 20.1875 13.125 20.1875ZM13.125 0C9.64403 0 6.30564 1.56718 3.84422 4.35679C1.38281 7.14639 0 10.9299 0 14.875C0 26.0312 13.125 42.5 13.125 42.5C13.125 42.5 26.25 26.0312 26.25 14.875C26.25 10.9299 24.8672 7.14639 22.4058 4.35679C19.9444 1.56718 16.606 0 13.125 0Z" fill="#A8B087"/>
</svg>
