<svg width="100%" height="100%" viewBox="0 0 28 27" fill="none" xmlns="http://www.w3.org/2000/svg">
<path fill-rule="evenodd" clip-rule="evenodd" d="M12.4385 0.666992C10.5748 0.667146 8.73815 1.09948 7.08181 1.92792C5.42548 2.75636 3.99746 3.95688 2.91691 5.42933C1.83636 6.90178 1.1346 8.60345 0.870183 10.3924C0.605768 12.1813 0.786364 14.0056 1.3969 15.7131C2.00744 17.4206 3.03022 18.9617 4.37991 20.208C5.7296 21.4542 7.36705 22.3694 9.15567 22.8771C10.9443 23.3849 12.8322 23.4705 14.6619 23.1269C16.4915 22.7832 18.2099 22.0203 19.6737 20.9017L24.6952 25.771C24.9545 26.0139 25.3019 26.1483 25.6624 26.1452C26.0229 26.1422 26.3678 26.002 26.6227 25.7547C26.8776 25.5075 27.0223 25.1731 27.0254 24.8235C27.0285 24.4739 26.8899 24.1371 26.6395 23.8857L21.618 19.0163C22.9765 17.3451 23.8223 15.3369 24.0587 13.2213C24.2951 11.1057 23.9126 8.96835 22.9548 7.05378C21.997 5.13921 20.5027 3.5248 18.6429 2.3953C16.7831 1.2658 14.6329 0.666849 12.4385 0.666992ZM3.50096 12.0003C3.50096 9.70178 4.44259 7.49738 6.11869 5.87207C7.7948 4.24675 10.0681 3.33366 12.4385 3.33366C14.8088 3.33366 17.0821 4.24675 18.7582 5.87207C20.4343 7.49738 21.376 9.70178 21.376 12.0003C21.376 14.2989 20.4343 16.5033 18.7582 18.1286C17.0821 19.7539 14.8088 20.667 12.4385 20.667C10.0681 20.667 7.7948 19.7539 6.11869 18.1286C4.44259 16.5033 3.50096 14.2989 3.50096 12.0003Z" fill="white"/>
</svg>
